#!OML:ASF I:\Actors\actors\Patient Classification 1\Patient 1\Session 1\Subject1.ASF
:FULLY-SPECIFIED
:DEGREES
413
root -0.964749 17.5801 7.84129 2.94937 4.93883 -7.80193
lowerback 1.70776 0.0338649 6.74829
upperback -8.86468 0.698653 1.7496
thorax -10.3842 -0.126858 -1.96728
lowerneck -10.4018 2.49239 5.3423
upperneck 27.7645 1.32981 3.95768
head 10.6727 1.66026 0.673711
rclavicle 1.98785e-015 -2.78299e-015
rhumerus 27.5316 71.4365 -56.9487
rradius 119.312
rwrist -33.7722
rhand -5.05024 -61.4548
rfingers 7.12502
rthumb 20.7451 -269.634
lclavicle 1.98785e-015 -2.78299e-015
lhumerus 16.3222 2.99993 82.5547
lradius 59.0728
lwrist 62.1267
lhand -8.71242 3.14224
lfingers 7.12502
lthumb 17.2232 32.399
rfemur 1.28558 14.916 27.981
rtibia 7.3144
rfoot -17.0879 -15.3341
rtoes 2.09327
lfemur 7.17112 -34.2157 -11.9007
ltibia -1.71433
lfoot -8.95032 36.4028
ltoes -10.0881
414
root -0.981918 17.5772 7.86191 2.62675 5.65534 -7.75116
lowerback 1.59337 0.0600099 6.90039
upperback -9.01518 0.739388 1.67529
thorax -10.4842 -0.128279 -2.13383
lowerneck -10.7198 2.51344 5.43869
upperneck 28.7596 1.3705 3.65535
head 11.116 1.6869 0.577328
rclavicle 1.83876e-015 2.5842e-014
rhumerus 25.9947 72.1454 -58.3362
rradius 119.153
rwrist -33.9096
rhand -4.92711 -61.5377
rfingers 7.12502
rthumb 20.8634 -269.564
lclavicle 1.83876e-015 2.5842e-014
lhumerus 15.4894 3.39914 82.9319
lradius 58.9656
lwrist 62.0094
lhand -8.6665 3.18399
lfingers 7.12502
lthumb 17.2674 32.4369
rfemur 1.71675 14.6388 28.1381
rtibia 7.34208
rfoot -17.3497 -15.8416
rtoes 1.63416
lfemur 6.76016 -33.0519 -11.4717
ltibia -1.28054
lfoot -8.70358 34.5124
ltoes -11.0554
415
root -0.999753 17.5714 7.88201 2.35095 6.29358 -7.77772
lowerback 1.51921 0.121717 7.11023
upperback -9.17368 0.833563 1.57044
thorax -10.6131 -0.111802 -2.37108
lowerneck -10.6327 2.43688 4.94658
upperneck 28.9391 1.1636 4.40202
head 11.1558 1.63767 0.91029
rclavicle 6.06293e-015 -2.88238e-014
rhumerus 24.307 72.8269 -59.9547
rradius 118.944
rwrist -34.0194
rhand -4.57149 -61.5713
rfingers 7.12502
rthumb 21.2051 -269.569
lclavicle 6.06293e-015 -2.88238e-014
lhumerus 14.7048 3.58431 83.1742
lradius 58.9044
lwrist 61.8899
lhand -8.46078 3.22704
lfingers 7.12502
lthumb 17.4654 32.4624
rfemur 2.15996 14.496 28.4271
rtibia 7.25206
rfoot -17.5695 -16.5678
rtoes 1.00356
lfemur 6.36408 -31.9424 -10.9762
ltibia -0.854303
lfoot -8.37026 32.7064
ltoes -12.522
416
root -1.01892 17.5623 7.90001 2.14047 6.87762 -7.83973
lowerback 1.28721 0.194984 7.24985
upperback -9.18535 0.918069 1.51143
thorax -10.4785 -0.0805279 -2.51928
lowerneck -10.5548 2.35861 3.75251
upperneck 28.535 0.831884 6.20728
head 10.9644 1.56598 1.71966
rclavicle -3.00662e-014 3.63776e-014
rhumerus 23.825 73.4263 -60.3909
rradius 118.74
rwrist -34.2524
rhand -4.41331 -61.5979
rfingers 7.12502
rthumb 21.357 -269.559
lclavicle -3.00662e-014 3.63776e-014
lhumerus 14.1799 3.70909 83.3897
lradius 58.9057
lwrist 61.7737
lhand -8.2788 3.24606
lfingers 7.12502
lthumb 17.6406 32.4658
rfemur 2.61291 14.4672 28.7753
rtibia 7.06801
rfoot -17.857 -17.3412
rtoes 0.964816
lfemur 5.95917 -31.044 -10.4885
ltibia -0.427636
lfoot -8.159 31.1781
ltoes -13.9341
417
root -1.03982 17.553 7.91184 1.96431 7.43062 -7.89904
lowerback 1.09489 0.234969 7.29955
upperback -9.1233 0.95556 1.51611
thorax -10.2883 -0.0577016 -2.54468
lowerneck -11.1916 2.35758 4.77421
upperneck 29.1601 1.01108 4.52966
head 11.3507 1.58088 0.981803
rclavicle 1.96797e-014 -2.46493e-014
rhumerus 24.4185 74.0003 -59.7971
rradius 118.55
rwrist -34.6285
rhand -4.29981 -61.6153
rfingers 7.12502
rthumb 21.466 -269.554
lclavicle 1.96797e-014 -2.46493e-014
lhumerus 13.8198 3.87879 83.5657
lradius 58.9468
lwrist 61.6761
lhand -8.22053 3.18951
lfingers 7.12502
lthumb 17.6966 32.4042
rfemur 3.02632 14.5156 29.1205
rtibia 6.84012
rfoot -18.1238 -18.1285
rtoes 1.23106
lfemur 5.51197 -30.3924 -10.0527
ltibia 0.0629642
lfoot -8.07107 29.958
ltoes -15.1003
418
root -1.06 17.5445 7.91882 1.81127 7.93017 -8.041
lowerback 1.03607 0.282708 7.43275
upperback -9.13145 1.02605 1.52263
thorax -10.2565 -0.0323427 -2.61798
lowerneck -11.2794 2.33597 4.83967
upperneck 28.9559 1.00928 4.39914
head 11.2905 1.56801 0.919551
rclavicle -1.0138e-014 6.95746e-015
rhumerus 24.723 74.528 -59.5875
rradius 118.366
rwrist -35.0489
rhand -4.08565 -61.7667
rfingers 7.12502
rthumb 21.6717 -269.426
lclavicle -1.0138e-014 6.95746e-015
lhumerus 13.4106 3.99701 83.6808
lradius 58.9866
lwrist 61.559
lhand -8.05394 3.07024
lfingers 7.12502
lthumb 17.8569 32.2704
rfemur 3.33468 14.6013 29.5457
rtibia 6.66041
rfoot -18.3043 -18.9223
rtoes 0.94535
lfemur 5.10154 -29.9466 -9.57821
ltibia 0.508619
lfoot -8.00821 29.0048
ltoes -16.1245
419
root -1.08002 17.5376 7.92248 1.67971 8.3979 -8.2481
lowerback 1.02675 0.356112 7.59825
upperback -9.1597 1.13883 1.52371
thorax -10.273 0.00859004 -2.71933
lowerneck -11.0707 2.34678 3.95956
upperneck 28.1904 0.787527 6.12744
head 10.9422 1.56071 1.65037
rclavicle -2.4699e-014 -1.61016e-014
rhumerus 24.8664 74.9166 -59.6475
rradius 118.137
rwrist -35.3754
rhand -3.74835 -61.8531
rfingers 7.12502
rthumb 21.9956 -269.378
lclavicle -2.4699e-014 -1.61016e-014
lhumerus 13.0489 4.08475 83.8592
lradius 59.0192
lwrist 61.3843
lhand -7.78936 2.91272
lfingers 7.12502
lthumb 18.1115 32.0895
rfemur 3.52414 14.7262 30.0422
rtibia 6.58062
rfoot -18.3533 -19.7677
rtoes -0.0964328
lfemur 4.79865 -29.6602 -9.06598
ltibia 0.754032
lfoot -7.9648 28.2704
ltoes -16.6903
